# xmcd CD database file
#
# Track frame offsets:
#	150
#	17290
#	33265
#	46905
#	65846
#	86749
#	103535
#	121547
#	142950
#	162225
#	176735
#	196811
#
# Disc length: 2864 seconds
#
# Revision: 0
# Processed by: cddbd v1.5.2PL0 Copyright (c) Steve Scherf et al.
# Submitted via: CDex 1.51
#
DISCID=910b2e0c
DTITLE=Danny Wright - Real Romance
DYEAR=2006
DGENRE=New Age
TTITLE0=In Your Eyes
TTITLE1=Forever In Your Arms
TTITLE2=My Miracle
TTITLE3=Moon River
TTITLE4=When We're Apart
TTITLE5=Inside of Me
TTITLE6=Missing You
TTITLE7=Somewhere in Time
TTITLE8=Best Ever
TTITLE9=The Smile That Lights My Heart
TTITLE10=New Life
TTITLE11=My Funny Valentine
EXTD=YEAR: 2006
EXTT0=
EXTT1=
EXTT2=
EXTT3=
EXTT4=
EXTT5=
EXTT6=
EXTT7=
EXTT8=
EXTT9=
EXTT10=
EXTT11=
PLAYORDER=
